FDS_states
version=1
nRows=4
nColumns=142
inDegrees=yes

# SIMM Motion File Header:
name FDS_states
datacolumns 142
datarows 4
otherdata 1
range 0.61999999999999999556 0.62111761055093328565
endheader
time	/jointset/groundthorax/r_z/value	/jointset/groundthorax/r_z/speed	/jointset/sternoclavicular/sternoclavicular_r2/value	/jointset/sternoclavicular/sternoclavicular_r2/speed	/jointset/sternoclavicular/sternoclavicular_r3/value	/jointset/sternoclavicular/sternoclavicular_r3/speed	/jointset/unrotscap/unrotscap_r3/value	/jointset/unrotscap/unrotscap_r3/speed	/jointset/unrotscap/unrotscap_r2/value	/jointset/unrotscap/unrotscap_r2/speed	/jointset/acromioclavicular/acromioclavicular_r2/value	/jointset/acromioclavicular/acromioclavicular_r2/speed	/jointset/acromioclavicular/acromioclavicular_r3/value	/jointset/acromioclavicular/acromioclavicular_r3/speed	/jointset/acromioclavicular/acromioclavicular_r1/value	/jointset/acromioclavicular/acromioclavicular_r1/speed	/jointset/unrothum/unrothum_r1/value	/jointset/unrothum/unrothum_r1/speed	/jointset/unrothum/unrothum_r3/value	/jointset/unrothum/unrothum_r3/speed	/jointset/unrothum/unrothum_r2/value	/jointset/unrothum/unrothum_r2/speed	/jointset/shoulder0/elv_angle/value	/jointset/shoulder0/elv_angle/speed	/jointset/shoulder1/shoulder_elv/value	/jointset/shoulder1/shoulder_elv/speed	/jointset/shoulder1/shoulder1_r2/value	/jointset/shoulder1/shoulder1_r2/speed	/jointset/shoulder2/shoulder_rot/value	/jointset/shoulder2/shoulder_rot/speed	/jointset/elbow/elbow_flexion/value	/jointset/elbow/elbow_flexion/speed	/jointset/radioulnar/pro_sup/value	/jointset/radioulnar/pro_sup/speed	/jointset/radiocarpal/deviation/value	/jointset/radiocarpal/deviation/speed	/jointset/radiocarpal/flexion/value	/jointset/radiocarpal/flexion/speed	/jointset/wrist_hand/wrist_hand_r1/value	/jointset/wrist_hand/wrist_hand_r1/speed	/jointset/wrist_hand/wrist_hand_r3/value	/jointset/wrist_hand/wrist_hand_r3/speed	/forceset/DELT1/activation	/forceset/DELT1/fiber_length	/forceset/DELT2/activation	/forceset/DELT2/fiber_length	/forceset/DELT3/activation	/forceset/DELT3/fiber_length	/forceset/SUPSP/activation	/forceset/SUPSP/fiber_length	/forceset/INFSP/activation	/forceset/INFSP/fiber_length	/forceset/SUBSC/activation	/forceset/SUBSC/fiber_length	/forceset/TMIN/activation	/forceset/TMIN/fiber_length	/forceset/TMAJ/activation	/forceset/TMAJ/fiber_length	/forceset/PECM1/activation	/forceset/PECM2/activation	/forceset/PECM2/fiber_length	/forceset/PECM3/activation	/forceset/PECM3/fiber_length	/forceset/LAT1/activation	/forceset/LAT1/fiber_length	/forceset/LAT2/activation	/forceset/LAT2/fiber_length	/forceset/LAT3/activation	/forceset/LAT3/fiber_length	/forceset/CORB/activation	/forceset/CORB/fiber_length	/forceset/TRIlong/activation	/forceset/TRIlong/fiber_length	/forceset/TRIlat/activation	/forceset/TRIlat/fiber_length	/forceset/TRImed/activation	/forceset/TRImed/fiber_length	/forceset/ANC/activation	/forceset/ANC/fiber_length	/forceset/SUP/activation	/forceset/SUP/fiber_length	/forceset/BIClong/activation	/forceset/BIClong/fiber_length	/forceset/BICshort/activation	/forceset/BICshort/fiber_length	/forceset/BRA/activation	/forceset/BRA/fiber_length	/forceset/BRD/activation	/forceset/BRD/fiber_length	/forceset/ECRL/activation	/forceset/ECRL/fiber_length	/forceset/ECRB/activation	/forceset/ECRB/fiber_length	/forceset/ECU/activation	/forceset/ECU/fiber_length	/forceset/FCR/activation	/forceset/FCR/fiber_length	/forceset/FCU/activation	/forceset/FCU/fiber_length	/forceset/PL/activation	/forceset/PL/fiber_length	/forceset/PT/activation	/forceset/PT/fiber_length	/forceset/PQ/activation	/forceset/PQ/fiber_length	/forceset/FDSL/activation	/forceset/FDSL/fiber_length	/forceset/FDSR/activation	/forceset/FDSR/fiber_length	/forceset/FDSM/activation	/forceset/FDSM/fiber_length	/forceset/FDSI/activation	/forceset/FDSI/fiber_length	/forceset/FDPL/activation	/forceset/FDPL/fiber_length	/forceset/FDPR/activation	/forceset/FDPR/fiber_length	/forceset/FDPM/activation	/forceset/FDPM/fiber_length	/forceset/FDPI/activation	/forceset/FDPI/fiber_length	/forceset/EDCL/activation	/forceset/EDCL/fiber_length	/forceset/EDCR/activation	/forceset/EDCR/fiber_length	/forceset/EDCM/activation	/forceset/EDCM/fiber_length	/forceset/EDCI/activation	/forceset/EDCI/fiber_length	/forceset/EDM/activation	/forceset/EDM/fiber_length	/forceset/EIP/activation	/forceset/EIP/fiber_length	/forceset/EPL/activation	/forceset/EPL/fiber_length	/forceset/EPB/activation	/forceset/EPB/fiber_length	/forceset/FPL/activation	/forceset/FPL/fiber_length	/forceset/APL/activation	/forceset/APL/fiber_length
      0.61999999999999999556	     10.00000027505223165747	     -0.00000000000000000000	     -3.55181780323098239549	     -0.40417026400775724060	      1.50438238478257901853	      0.17118744803663374365	     -1.50438238478257901853	     -0.17118744803663374365	      3.55181780323098239549	      0.40417026400775724060	     -0.71917085562275873123	     -0.08183625700601071529	      5.81208588227329325804	      0.66137184270467785918	      2.61249260405023697729	      0.29728209159174329157	     -2.61249260405023697729	     -0.29728209159174329157	     -5.81208588227329325804	     -0.66137184270467785918	      0.71917085562275873123	      0.08183625700601071529	    -23.24636583821596147459	     25.37295123507382399453	     14.67690017548702208217	      1.67012131459726198557	     23.24636583821596147459	    -25.37295123507382399453	     -6.60673955176307536874	      2.84860320442056824675	     97.94260080421511815985	     -2.13920525066185618357	     21.66730223354032602856	      7.63476930485967297813	      0.00000000137076476846	     -0.00000000000000000000	     -0.00000000000000000000	      0.00000000000000000000	      0.00000010658852164571	     -0.00000000000000000000	     -0.00000000000000000000	      0.00000000000000000000	      0.87530708000000001512	      0.12604119799999999318	      0.67396236300000000874	      0.09295871699999999627	      0.02000000000000000042	      0.11377399700000000171	      0.22491171300000001310	      0.06723765299999999445	      0.19077429200000001197	      0.07598449399999999965	      0.07936641099999999782	      0.08056537599999999411	      0.02000000000000000042	      0.06113261600000000073	      0.02771125799999999903	      0.12295780700000000230	      0.04525917699999999766	      0.08411115299999999406	      0.10883515400000000339	      0.10922134299999999851	      0.08289243100000000253	      0.02000000000000000042	      0.16824201899999999266	      0.02000000000000000042	      0.13193429900000000488	      0.02000000000000000042	      0.19634833600000001219	      0.02321524200000000052	      0.07376723599999999992	      0.02000000000000000042	      0.17071388600000000912	      0.03371393300000000148	      0.10705855799999999811	      0.03427299799999999896	      0.10198828100000000008	      0.02000000000000000042	      0.02287801899999999944	      0.02000000000000000042	      0.03616511000000000031	      0.08051792700000000302	      0.11356596200000000640	      0.02000000000000000042	      0.12241967099999999380	      0.02990585600000000149	      0.06549730199999999336	      0.02199285200000000023	      0.11691176799999999925	      0.06205296800000000002	      0.05938290000000000235	      0.07170222499999999444	      0.06063362900000000139	      0.06399995399999999779	      0.07021907900000000369	      0.02000000000000000042	      0.04821019900000000219	      0.02000000000000000042	      0.03270598100000000202	      0.02000000000000000042	      0.04750780799999999859	      0.11375126100000000628	      0.03754719499999999849	      0.05142987799999999832	      0.02378852999999999870	      0.02000000000000000042	      0.03349450699999999975	      0.02000000000000000042	      0.05679194600000000287	      0.02000000000000000042	      0.07222141699999999609	      0.02000000000000000042	      0.08441466699999999879	      0.02000000000000000042	      0.07402077599999999646	      0.02000000000000000042	      0.07788550900000000554	      0.02000000000000000042	      0.07408168399999999487	      0.02000000000000000042	      0.07362668899999999517	      0.02000000000000000042	      0.07957491899999999396	      0.06223333000000000337	      0.06727402400000000171	      0.04632344000000000045	      0.07959921699999999989	      0.02683273499999999992	      0.07299389000000000571	      0.02199999999999999872	      0.07947499299999999378	      0.02000000000000000042	      0.06588998899999999603	      0.02000000000000000042	      0.06272632499999999944	      0.02000000000000000042	      0.06764416099999999432	      0.02000000000000000042	      0.05968005700000000163	      0.02000000000000000042	      0.07039141899999999674
      0.62040450602489161103	     10.00000027505223165747	     -0.00000000000015226937	     -3.55198111014527162510	     -0.40324890723911588353	      1.50445155388380547024	      0.17079720479512153219	     -1.50445155388380547024	     -0.17079720479511104059	      3.55198111014527162510	      0.40324890723911682722	     -0.71920392195098414856	     -0.08164970100217033844	      5.81235311270672205808	      0.65986416270411418772	      2.61261272229092567088	      0.29660439980764341517	     -2.61261272229092567088	     -0.29660439980762492995	     -5.81235311270672205808	     -0.65986416270410419571	      0.71920392195098414856	      0.08164970100217189275	    -23.23606130867584695920	     25.57565464439538871488	     14.67757499593440329022	      1.66631406375611512694	     23.23606130867584695920	    -25.57565464439538871488	     -6.60558429623579712597	      2.86327629396130411976	     97.94173302577034689875	     -2.15165936825749026795	     21.67039121095150022711	      7.63862086037094822899	      0.00000000137076476858	      0.00000000000000400350	      0.00000000000000000451	      0.00000000000002819483	      0.00000010658852147744	     -0.00000000000075985567	     -0.00000000000000006668	     -0.00000000000037906327	      0.87518984348914807825	      0.12604110068176471726	      0.67349969447413793322	      0.09296500279670791289	      0.02000000000000000042	      0.11377573008231711693	      0.22689546030325152826	      0.06723704715400892484	      0.19157036515565598056	      0.07598452201293288966	      0.08046023130350246633	      0.08056477038742847208	      0.02000000000000000042	      0.06113325151222848142	      0.02770326002210608818	      0.12295342792143318378	      0.04520941746621400664	      0.08388208121624614322	      0.10883650824481151675	      0.10880632472764902030	      0.08289390795574538839	      0.02000000000000000042	      0.16824308419439976126	      0.02000000000000000042	      0.13193567781167883646	      0.02000000000000000042	      0.19634954200789814238	      0.02320425501353107559	      0.07376739383735002320	      0.02000000000000000042	      0.17071534218142189743	      0.03422434555479299256	      0.10705863086635132586	      0.03476098554913276822	      0.10198833851258445882	      0.02004469445090659510	      0.02287784944235124115	      0.02000000000000000042	      0.03616550252218021094	      0.08070422649126279824	      0.11357063665624118898	      0.02000000000000000042	      0.12242146372758673512	      0.02989568657955948838	      0.06549763958328878866	      0.02199084264015645565	      0.11691309390565787774	      0.06200645275406314189	      0.05938281460098322057	      0.07148028556429081304	      0.06063758762634469807	      0.06397673534379820504	      0.07021902338347850436	      0.02000000000000000042	      0.04821037244387074011	      0.02000000000000000042	      0.03270620720515727414	      0.02000000000000000042	      0.04750804886941357996	      0.11395213118275232533	      0.03754819664726892492	      0.05139772224022731706	      0.02378817142215477326	      0.02000000000000000042	      0.03349473051909336585	      0.02000000000000000042	      0.05679211722138840374	      0.02000000000000000042	      0.07222131048801518072	      0.02000000000000000042	      0.08441454155579639074	      0.02000000000000000042	      0.07402070734847028544	      0.02000000000000000042	      0.07788543589700248904	      0.02000000000000000042	      0.07408158773521017482	      0.02000000000000000042	      0.07362657765740769633	      0.02000000000000000042	      0.07957494795961432554	      0.06205224872399278668	      0.06727942320858905367	      0.04623066584267342821	      0.07960305158792500835	      0.02682466463982299126	      0.07299441749715032679	      0.02200837065359781408	      0.07947501531487845272	      0.02000000000000000042	      0.06589000209766616989	      0.02000000000000000042	      0.06272641339878338995	      0.02000000000000000042	      0.06764416245652203619	      0.02000000000000000042	      0.05968005719139632403	      0.02000000000000000042	      0.07039142025410644044
      0.62080901204978322649	     10.00000027505223165747	     -0.00000000000077513108	     -3.55214402111906490944	     -0.40221298013519851677	      1.50452055528332540035	      0.17035843496697977706	     -1.50452055528332540035	     -0.17035843496699243360	      3.55214402111906490944	      0.40221298013512712943	     -0.71923690810931317774	     -0.08143994683595548456	      5.81261969523524868464	      0.65816900331549055281	      2.61273254930281995101	      0.29584243732886605915	     -2.61273254930281995101	     -0.29584243732889642375	     -5.81261969523524868464	     -0.65816900331546746017	      0.71923690810931317774	      0.08143994683595466577	    -23.22567489265430040746	     25.77786524825162217667	     14.67824818026770117285	      1.66203338283835311273	     23.22567489265430040746	    -25.77786524825165770380	     -6.60442315472260244036	      2.87773257304420093661	     97.94085973629789521055	     -2.16657482156127745299	     21.67348283528881935922	      7.65194239205042414653	      0.00000000137076477058	      0.00000000000000391704	      0.00000000000000001688	      0.00000000000002706240	      0.00000010658852117655	     -0.00000000000066812955	     -0.00000000000000024211	     -0.00000000000047309490	      0.87647016949740186309	      0.12604085524004654539	      0.67727120514691940834	      0.09297067161562073967	      0.02000000000000000042	      0.11377748124827377629	      0.23365184236495695203	      0.06723557125083466646	      0.19387914468594683037	      0.07598417582390711023	      0.08361613439545709237	      0.08056300806067390186	      0.02000000000000000042	      0.06113389049495618344	      0.02767832059455382215	      0.12295458151187736717	      0.04625354473963896179	      0.08519250454499530112	      0.10883715492243210832	      0.10893590596838623186	      0.08289513315762397916	      0.02000000000000000042	      0.16824415947511675573	      0.02000000000000000042	      0.13193706921503051133	      0.02000000000000000042	      0.19635075814248240111	      0.02323839377305132389	      0.07376751626584750199	      0.02000000000000000042	      0.17071681100051058766	      0.03718365994988353379	      0.10705609367151551481	      0.03771389659593941956	      0.10198586659329202109	      0.02017433994420918947	      0.02287764051831978757	      0.02000000000000000042	      0.03616589529799214831	      0.08445106434516001792	      0.11357333929605123446	      0.02000000000000000042	      0.12242325963418101975	      0.02986347931491059246	      0.06549800787779322397	      0.02198450179180366088	      0.11691444149307914091	      0.06186456641565111353	      0.05938282937655934429	      0.07146825943283677263	      0.06064143808379663519	      0.06390663357160480951	      0.07021899934772653229	      0.02000000000000000042	      0.04821054739059437572	      0.02000000000000000042	      0.03270643504159521237	      0.02000000000000000042	      0.04750829168395097335	      0.11775090874431963506	      0.03754857960977260600	      0.05279862690492190952	      0.02378765376451000627	      0.02000000000000000042	      0.03349495593425391715	      0.02000000000000000042	      0.05679228994000866393	      0.02000000000000000042	      0.07222120386077313103	      0.02000000000000000042	      0.08441441602377514064	      0.02000000000000000042	      0.07402063864227938217	      0.02000000000000000042	      0.07788536273559182321	      0.02000000000000000042	      0.07408149139204903144	      0.02000000000000000042	      0.07362646618129614629	      0.02000000000000000042	      0.07957497714292277591	      0.06199125933601729033	      0.06728473099413713465	      0.04633414442928576737	      0.07960678284292983797	      0.02691565436566442301	      0.07299489278444232232	      0.02203266066582710084	      0.07947501927548156209	      0.02000000000000000042	      0.06589001519488824066	      0.02000000000000000042	      0.06272650184133027329	      0.02000000000000000042	      0.06764416373252890580	      0.02000000000000000042	      0.05968005737020871254	      0.02000000000000000042	      0.07039142136062873090
      0.62111761055093328565	     10.00000027505223165747	     -0.00000000000085380975	     -3.55226801071396769416	     -0.40133930348659296872	      1.50457307142373619691	      0.16998838677389077612	     -1.50457307142373619691	     -0.16998838677393554586	      3.55226801071396769416	      0.40133930348647195441	     -0.71926201348013862891	     -0.08126304508654190462	      5.81282258801128737247	      0.65673934560311952868	      2.61282374820929774728	      0.29519981602634792761	     -2.61282374820929774728	     -0.29519981602641237606	     -5.81282258801128737247	     -0.65673934560312896558	      0.71926201348013862891	      0.08126304508652269776	    -23.21769610185317489481	     25.93197398885923021794	     14.67876053281729653577	      1.65842315684504160167	     23.21769610185317489481	    -25.93197398885925508694	     -6.60353338804412803853	      2.88877062425702169079	     97.94018918392461614530	     -2.17935091065333352844	     21.67585080683540965651	      7.70524991217850097058	      0.00000000137076477010	     -0.00000000000000473801	      0.00000000000000001790	     -0.00000000000001257694	      0.00000010658852134966	      0.00000000000133675627	     -0.00000000000000051953	     -0.00000000000110366163	      0.87835134609384024618	      0.12604050029983437931	      0.68310024368944466389	      0.09297422363311026727	      0.02000000000000000042	      0.11377882938826371084	      0.24168538314769838493	      0.06723342683023258992	      0.19655158094681754455	      0.07598350134672066103	      0.08723784532915687673	      0.08056048758954793831	      0.02000000000000000042	      0.06113438034133027860	      0.02764864111113401676	      0.12295604501426535271	      0.04818246649613624338	      0.08830089648746115849	      0.10883581051868937428	      0.11067083700793184375	      0.08289532552524504772	      0.02000000000000000042	      0.16824498653738778620	      0.02000000000000000042	      0.13193813916280561216	      0.02000000000000000042	      0.19635169272217312120	      0.02336624654353677139	      0.07376749648275300608	      0.02000000000000000042	      0.17071794009245028212	      0.04096290928611333315	      0.10705066785147344943	      0.04150155350805551785	      0.10198058292961538485	      0.02032366124403732141	      0.02287743869350959344	      0.02000000000000000042	      0.03616619511556335570	      0.08988538186018149578	      0.11357207252648653106	      0.02000000000000000042	      0.12242463195645358898	      0.02982512685484256867	      0.06549832025489389642	      0.02197695186102402443	      0.11691548895950147624	      0.06169593369984820164	      0.05938294979723910544	      0.07213947804173624634	      0.06064410789669054391	      0.06382334360493660541	      0.07021901789949903938	      0.02000000000000000042	      0.04821068186268543526	      0.02000000000000000042	      0.03270660994991085591	      0.02000000000000000042	      0.04750847822893546762	      0.12318774544371249857	      0.03754782815250710254	      0.05524180837310963682	      0.02378696738277939760	      0.02000000000000000042	      0.03349512917212429247	      0.02000000000000000042	      0.05679242270833437245	      0.02000000000000000042	      0.07222112243324194103	      0.02000000000000000042	      0.08441432018855089814	      0.02000000000000000042	      0.07402058618611678797	      0.02000000000000000042	      0.07788530687771762218	      0.02000000000000000042	      0.07408141783411881232	      0.02000000000000000042	      0.07362638104249112636	      0.02000000000000000042	      0.07957499955591706975	      0.06232940565891626622	      0.06728859284984482769	      0.04706716613448718584	      0.07960922066339708170	      0.02710516023117909637	      0.07299510682302495779	      0.02206065062524882950	      0.07947499991148401777	      0.02000000000000000042	      0.06589002518771726324	      0.02000000000000000042	      0.06272656934979939369	      0.02000000000000000042	      0.06764416459856870123	      0.02000000000000000042	      0.05968005749867730247	      0.02000000000000000042	      0.07039142211638603486
